# xmcd
#
# Track frame offsets: 
#        150
#        24749
#        46090
#        69821
#        95674
#        113395
#        139648
#        163223
#        177395
#        202316
#        217806
#        245929
#        269270
#        288634
#        300947
#
# Disc length: 4242 seconds
#
# Revision: 0
# Processed by: cddbd v1.5.2PL0 Copyright (c) Steve Scherf et al.
# Submitted via: ExactAudioCopyFreeDBPlugin 1.0
#
DISCID=d910900f
DTITLE=John Lee Hooker - Face To Face
DYEAR=2003
DGENRE=Blues
TTITLE0=Big Road
TTITLE1=Dimples
TTITLE2=Loving People
TTITLE3=Face To Face
TTITLE4=Funky Mabel
TTITLE5=It Serves Me Right To Suffer
TTITLE6=Up And Down
TTITLE7=Mad Man Blues
TTITLE8=Six Page Letter
TTITLE9=Stop Jivin' Me
TTITLE10=Mean Mean World
TTITLE11=Turn Over A New Leaf
TTITLE12=Wednesday Evening Blues
TTITLE13=Boogie Chillen
TTITLE14=Rock These Blues Away
EXTD=
EXTT0=
EXTT1=
EXTT2=
EXTT3=
EXTT4=
EXTT5=
EXTT6=
EXTT7=
EXTT8=
EXTT9=
EXTT10=
EXTT11=
EXTT12=
EXTT13=
EXTT14=
PLAYORDER=
